<svg width="86" height="86" fill="none" xmlns="http://www.w3.org/2000/svg"><g filter="url(#a)"><path d="M5.3 1.3h75.4v16.9H5.3V1.3z" fill="#F9ADB1"/><path d="M74.85 11.7A5.85 5.85 0 0 0 69 17.55v.65a6.5 6.5 0 1 0-13 0l-11.907 1.191.207-.508-13.114-4.426A6.469 6.469 0 0 0 30 18.2a6.5 6.5 0 1 0-13 0v-.65a5.85 5.85 0 1 0-11.7 0c0 4.748.582 9.479 1.734 14.086L10.5 45.501l5.518-17.658c.65-2.083.982-4.253.982-6.435v.674a6.322 6.322 0 0 0 1.852 4.471l4.424 4.423a.318.318 0 0 0 .45 0l4.423-4.423A6.322 6.322 0 0 0 30 22.083c0 1.676.666 3.283 1.851 4.468l4.424 4.424a.318.318 0 0 0 .451 0l4.424-4.424A6.322 6.322 0 0 0 43 22.083c0 1.676.666 3.283 1.85 4.468l4.424 4.424a.317.317 0 0 0 .452 0l4.423-4.424a6.322 6.322 0 0 0 1.85-4.468 6.323 6.323 0 0 0 1.853 4.47l4.424 4.423a.318.318 0 0 0 .45 0l4.423-4.423a6.322 6.322 0 0 0 1.85-4.471v-.674c0 2.183.332 4.352.983 6.435L75.5 45.501l3.466-13.864A58.078 58.078 0 0 0 80.7 17.55a5.85 5.85 0 0 0-5.85-5.85z" fill="#E4E4E2"/><path d="M54.347 9.1c-.239 0-.473-.066-.676-.19a7.574 7.574 0 0 0-3.948-1.11h-.446a7.527 7.527 0 0 0-3.139.68 1.3 1.3 0 0 1-1.076-2.366 10.11 10.11 0 0 1 4.215-.914h.446c1.87 0 3.705.516 5.302 1.49a1.3 1.3 0 0 1-.678 2.41z" fill="#EEA5A9"/><path d="M61.2 33.8h2.6v2.6h-2.6v-2.6zM61.2 39h2.6v5.2h-2.6V39z" fill="#C0F5F9"/><path d="M43 18.2v1.3l-2.8.884a5.328 5.328 0 0 1-5.2-1.091 6.035 6.035 0 0 1-.184-.176l-2.704-2.704a3.218 3.218 0 0 1-.926-1.957A6.5 6.5 0 0 1 43 18.201z" fill="#FBB540"/><path d="M37.8 18.2a1.3 1.3 0 1 0 0-2.6 1.3 1.3 0 0 0 0 2.6z" fill="#DA922A"/><path d="M56 18.2h-2.307a2.974 2.974 0 0 0-2.475 1.325 3.813 3.813 0 0 1-4.591 1.427L43 19.5v-1.3a6.502 6.502 0 0 1 5.835-6.465c.054-.005.11-.012.164-.015a6.56 6.56 0 0 1 .304-.016c.067-.002.132-.004.197-.004a6.622 6.622 0 0 1 1.31.132 6.773 6.773 0 0 1 1.218.379A6.512 6.512 0 0 1 56 18.2z" fill="#FBB540"/><path d="M48.2 18.2a1.3 1.3 0 1 0 0-2.6 1.3 1.3 0 0 0 0 2.6z" fill="#DA922A"/><path d="M57.3 49.4a1.3 1.3 0 0 1-1.3-1.3V23.4a1.3 1.3 0 0 1 .637-1.118l3.224-1.91a.65.65 0 0 0-.611-.872H52.1a1.3 1.3 0 0 1 0-2.6h7.15a3.25 3.25 0 0 1 2.6 5.2c-.103.137-.23.252-.377.339L58.6 24.14v23.96a1.3 1.3 0 0 1-1.3 1.3z" fill="#6CBAE5"/><path d="M57.3 48.1a3.9 3.9 0 0 1 3.9 3.9v24.7h-7.8V52a3.9 3.9 0 0 1 3.9-3.9z" fill="#428DC5"/><path d="M57.3 59.8h3.9v2.6h-3.9v-2.6zM57.3 65h3.9v2.6h-3.9V65zM57.3 70.2h3.9v2.6h-3.9v-2.6z" fill="#3775A4"/><path d="M53.4 55.9h7.8V52a3.9 3.9 0 0 0-7.8 0v3.9z" fill="#4799CF"/><path d="M61.2 33.8h2.6v2.6h-2.6v-2.6zM61.2 39h2.6v5.2h-2.6V39z" fill="#000"/><path d="M80.7 0H5.3A1.3 1.3 0 0 0 4 1.3v16.9c0 .04.002.078.006.116.06 4.598.652 9.174 1.767 13.636l3.466 13.863a1.3 1.3 0 0 0 1.223.985h.038a1.3 1.3 0 0 0 1.24-.912L17.26 28.23c.118-.377.222-.758.32-1.14.114.13.23.258.353.38l4.424 4.424a1.62 1.62 0 0 0 2.288 0l4.424-4.423c.347-.347.66-.727.935-1.133.272.406.583.786.929 1.132l4.423 4.423a1.622 1.622 0 0 0 2.29 0l4.424-4.423A7.54 7.54 0 0 0 43 26.334c.273.408.585.789.932 1.136l4.423 4.423a1.622 1.622 0 0 0 2.29 0l4.424-4.423c.346-.346.657-.726.929-1.132l.003.003v20.624A5.21 5.21 0 0 0 52.1 52v24.7a1.3 1.3 0 0 0 1.3 1.3h7.8a1.3 1.3 0 0 0 1.3-1.3V52a5.21 5.21 0 0 0-3.9-5.035V29.138l2.756 2.756a1.62 1.62 0 0 0 2.288 0l4.424-4.423c.123-.123.24-.251.353-.381.097.382.202.763.32 1.14l5.518 17.658a1.3 1.3 0 0 0 1.241.912h.038a1.3 1.3 0 0 0 1.224-.984l3.465-13.864a59.435 59.435 0 0 0 1.767-13.635 1.32 1.32 0 0 0 .006-.116V1.3A1.3 1.3 0 0 0 80.7 0zm-1.3 2.6v9.439a7.14 7.14 0 0 0-10.553 1.635 7.79 7.79 0 0 0-12.844.216 7.9 7.9 0 0 0-.988-1.205 7.794 7.794 0 0 0-12.012 1.205 7.801 7.801 0 0 0-12.879-.184l-.014.02-.007.011-.105.155a7.79 7.79 0 0 0-12.845-.218A7.14 7.14 0 0 0 6.6 12.039V2.6h72.8zM59.9 20.15c0 .075-.013.15-.039.221L57.3 21.89V19.5h1.95a.65.65 0 0 1 .65.65zm-7.8-3.25a1.3 1.3 0 0 0-1.285 1.113c-.258.235-.486.5-.68.79a2.525 2.525 0 0 1-3.026.94L44.3 18.62V18.19a5.2 5.2 0 0 1 10.236-1.29H52.1zm-10.4 1.647-1.89.597a4.027 4.027 0 0 1-4.075-.947l-3.188-3.188-.016-.166A5.2 5.2 0 0 1 41.7 18.2v.347zm-26.923 8.907L10.64 40.697l-2.344-9.375A56.828 56.828 0 0 1 6.6 17.55a4.55 4.55 0 0 1 9.1 0v3.858c0 2.05-.31 4.09-.923 6.046zm8.723 1.908-3.73-3.73a4.99 4.99 0 0 1-1.47-3.55V18.2a5.2 5.2 0 0 1 10.4 0v3.881a4.988 4.988 0 0 1-1.471 3.551l-3.729 3.73zm16.73-3.73-3.73 3.73-3.73-3.73a5.054 5.054 0 0 1-1.47-3.55V18.2c0-.238.018-.475.05-.71l2.547 2.546a6.53 6.53 0 0 0 4.642 1.905c.696 0 1.388-.107 2.052-.317l1.109-.35v.808a5.054 5.054 0 0 1-1.47 3.55zm14.47-3.55a5.054 5.054 0 0 1-1.47 3.55l-3.73 3.73-3.73-3.73a5.054 5.054 0 0 1-1.47-3.55v-.662l1.843.737c.6.24 1.24.363 1.884.363a5.14 5.14 0 0 0 4.272-2.274 1.672 1.672 0 0 1 1.394-.746H54.7v2.582zm0 53.318V57.2h5.2v2.6h-2.6v2.6h2.6V65h-2.6v2.6h2.6v2.6h-2.6v2.6h2.6v2.6h-5.2zM59.9 52v2.6h-5.2V52a2.6 2.6 0 1 1 5.2 0zm7.8-29.919a4.988 4.988 0 0 1-1.471 3.551l-3.729 3.73-3.73-3.73a5.213 5.213 0 0 1-.17-.179v-1.311l2.873-1.703c.147-.087.275-.202.377-.339a3.248 3.248 0 0 0-2.467-5.194 1.287 1.287 0 0 0-.133-.006h-1.785A5.2 5.2 0 0 1 67.7 18.2v3.881zm7.66 18.615-4.137-13.241a20.24 20.24 0 0 1-.923-6.047V17.55a4.55 4.55 0 0 1 9.1 0c0 4.642-.57 9.267-1.695 13.771l-2.344 9.375z" fill="#000"/><path d="M46.138 8.48a7.527 7.527 0 0 1 3.139-.68h.446c1.393 0 2.759.384 3.948 1.11a1.3 1.3 0 0 0 1.354-2.22 10.174 10.174 0 0 0-5.302-1.49h-.446a10.11 10.11 0 0 0-4.215.914 1.3 1.3 0 0 0 1.076 2.367zM37.8 18.2a1.3 1.3 0 1 0 0-2.6 1.3 1.3 0 0 0 0 2.6zM48.2 18.2a1.3 1.3 0 1 0 0-2.6 1.3 1.3 0 0 0 0 2.6z" fill="#000"/></g><defs><filter id="a" x="0" y="0" width="86.001" height="86" filterUnits="userSpaceOnUse" color-interpolation-filters="sRGB"><feFlood flood-opacity="0" result="BackgroundImageFix"/><feColorMatrix in="SourceAlpha" values="0 0 0 0 0 0 0 0 0 0 0 0 0 0 0 0 0 0 127 0" result="hardAlpha"/><feOffset dy="4"/><feGaussianBlur stdDeviation="2"/><feComposite in2="hardAlpha" operator="out"/><feColorMatrix values="0 0 0 0 0 0 0 0 0 0 0 0 0 0 0 0 0 0 0.25 0"/><feBlend in2="BackgroundImageFix" result="effect1_dropShadow_207_312"/><feColorMatrix in="SourceAlpha" values="0 0 0 0 0 0 0 0 0 0 0 0 0 0 0 0 0 0 127 0" result="hardAlpha"/><feOffset dy="4"/><feGaussianBlur stdDeviation="2"/><feComposite in2="hardAlpha" operator="out"/><feColorMatrix values="0 0 0 0 0 0 0 0 0 0 0 0 0 0 0 0 0 0 0.25 0"/><feBlend in2="effect1_dropShadow_207_312" result="effect2_dropShadow_207_312"/><feBlend in="SourceGraphic" in2="effect2_dropShadow_207_312" result="shape"/></filter></defs></svg>